HIERARCHY
ROOT Hips
{
	OFFSET 0.000000 71.427986 0.000000
	CHANNELS 6 Xposition Yposition Zposition Xrotation Yrotation Zrotation
	JOINT Pelvis
	{
		OFFSET 0.000000 0.000000 0.000000
		CHANNELS 3 Xrotation Yrotation Zrotation
		JOINT LeftUpLeg
		{
			OFFSET 6.797100 -2.508499 -1.318700
			CHANNELS 3 Xrotation Yrotation Zrotation
			JOINT LeftLeg
			{
				OFFSET 0.069008 -29.241863 0.690200
				CHANNELS 3 Xrotation Yrotation Zrotation
				JOINT LeftFoot
				{
					OFFSET -0.069008 -29.568123 -0.266800
					CHANNELS 3 Xrotation Yrotation Zrotation
					JOINT LeftToeBase
					{
						OFFSET 3.145500 -8.631000 16.059900
						CHANNELS 3 Xrotation Yrotation Zrotation
						End Site
						{
							OFFSET 0.000000 18.501587 0.000000
						}
					}
				}
			}
			JOINT Left_ShortSleeve
			{
				OFFSET 0.265923 -10.480953 1.153800
				CHANNELS 3 Xrotation Yrotation Zrotation
				End Site
				{
					OFFSET 1.725763 19.823879 0.000000
				}
			}
		}
		JOINT RightUpLeg
		{
			OFFSET -6.797100 -2.508499 -1.318700
			CHANNELS 3 Xrotation Yrotation Zrotation
			JOINT RightLeg
			{
				OFFSET -0.082453 -29.241932 0.688000
				CHANNELS 3 Xrotation Yrotation Zrotation
				JOINT RightFoot
				{
					OFFSET 0.082453 -29.568058 -0.264600
					CHANNELS 3 Xrotation Yrotation Zrotation
					JOINT RightToeBase
					{
						OFFSET -3.115300 -8.682800 16.113400
						CHANNELS 3 Xrotation Yrotation Zrotation
						End Site
						{
							OFFSET 0.000000 18.567114 0.000000
						}
					}
				}
			}
			JOINT Right_ShortSleeve
			{
				OFFSET -0.265923 -10.480953 1.153800
				CHANNELS 3 Xrotation Yrotation Zrotation
				End Site
				{
					OFFSET -1.725766 19.823910 0.000000
				}
			}
		}
	}
	JOINT Spine
	{
		OFFSET 0.000000 13.368103 0.470500
		CHANNELS 3 Xrotation Yrotation Zrotation
		JOINT Spine1
		{
			OFFSET 0.147000 13.837402 0.538800
			CHANNELS 3 Xrotation Yrotation Zrotation
			JOINT Spine2
			{
				OFFSET 0.168000 16.242897 -1.435500
				CHANNELS 3 Xrotation Yrotation Zrotation
				JOINT Neck
				{
					OFFSET 0.217200 18.631500 -1.679100
					CHANNELS 3 Xrotation Yrotation Zrotation
					JOINT Head
					{
						OFFSET 0.000000 6.599396 1.385900
						CHANNELS 3 Xrotation Yrotation Zrotation
						JOINT Hat
						{
							OFFSET -0.532200 27.220596 -10.096100
							CHANNELS 3 Xrotation Yrotation Zrotation
							End Site
							{
								OFFSET 0.000000 22.029861 0.000000
							}
						}
						JOINT HairD
						{
							OFFSET -10.777400 17.437393 -1.325900
							CHANNELS 3 Xrotation Yrotation Zrotation
							JOINT HairD1
							{
								OFFSET -3.290299 -11.051193 1.062200
								CHANNELS 3 Xrotation Yrotation Zrotation
								End Site
								{
									OFFSET 0.000000 11.579437 0.000000
								}
							}
						}
						JOINT HairB
						{
							OFFSET -10.777400 17.437393 1.467900
							CHANNELS 3 Xrotation Yrotation Zrotation
							JOINT HairB1
							{
								OFFSET -1.561200 -12.956299 3.590200
								CHANNELS 3 Xrotation Yrotation Zrotation
								End Site
								{
									OFFSET 0.000000 13.534866 0.000000
								}
							}
						}
						JOINT HairA
						{
							OFFSET 9.713100 17.437393 1.467900
							CHANNELS 3 Xrotation Yrotation Zrotation
							JOINT HairA1
							{
								OFFSET 1.561200 -12.956299 3.590200
								CHANNELS 3 Xrotation Yrotation Zrotation
								End Site
								{
									OFFSET 0.000000 13.534866 0.000000
								}
							}
						}
						JOINT HairC
						{
							OFFSET 9.713100 17.437393 -1.325900
							CHANNELS 3 Xrotation Yrotation Zrotation
							JOINT HairC1
							{
								OFFSET 3.290300 -11.051193 1.062200
								CHANNELS 3 Xrotation Yrotation Zrotation
								End Site
								{
									OFFSET 0.000000 11.579437 0.000000
								}
							}
						}
					}
				}
				JOINT LeftShoulder
				{
					OFFSET 5.101800 15.108002 -2.763700
					CHANNELS 3 Xrotation Yrotation Zrotation
					JOINT LeftArm
					{
						OFFSET 9.825497 2.506317 -1.597400
						CHANNELS 3 Xrotation Yrotation Zrotation
						JOINT LeftForeArm
						{
							OFFSET 21.966244 0.000000 0.000000
							CHANNELS 3 Xrotation Yrotation Zrotation
							JOINT LeftHand
							{
								OFFSET 33.879036 0.000000 0.000000
								CHANNELS 3 Xrotation Yrotation Zrotation
								JOINT LeftHandThumb1
								{
									OFFSET 6.715286 -2.359680 3.363841
									CHANNELS 3 Xrotation Yrotation Zrotation
									JOINT LeftHandThumb2
									{
										OFFSET 2.507072 -1.447464 1.447461
										CHANNELS 3 Xrotation Yrotation Zrotation
										JOINT LeftHandThumb3
										{
											OFFSET 2.898338 -1.673355 1.673357
											CHANNELS 3 Xrotation Yrotation Zrotation
											End Site
											{
												OFFSET -0.295959 3.727692 -0.131651
											}
										}
									}
								}
								JOINT LeftHandIndex1
								{
									OFFSET 14.190811 -0.254547 3.840278
									CHANNELS 3 Xrotation Yrotation Zrotation
									JOINT LeftHandIndex2
									{
										OFFSET 3.551727 0.000000 -0.000000
										CHANNELS 3 Xrotation Yrotation Zrotation
										JOINT LeftHandIndex3
										{
											OFFSET 2.894196 0.000000 0.000000
											CHANNELS 3 Xrotation Yrotation Zrotation
											End Site
											{
												OFFSET -1.000603 2.690872 0.366626
											}
										}
									}
								}
								JOINT LeftHandMiddle1
								{
									OFFSET 13.776489 0.000000 0.000000
									CHANNELS 3 Xrotation Yrotation Zrotation
									JOINT LeftHandMiddle2
									{
										OFFSET 3.438232 0.000000 0.000000
										CHANNELS 3 Xrotation Yrotation Zrotation
										JOINT LeftHandMiddle3
										{
											OFFSET 3.691551 0.000000 0.000000
											CHANNELS 3 Xrotation Yrotation Zrotation
											End Site
											{
												OFFSET -1.082298 3.499527 0.457670
											}
										}
									}
								}
								JOINT LeftHandRing1
								{
									OFFSET 13.966164 -0.268127 -3.067488
									CHANNELS 3 Xrotation Yrotation Zrotation
									JOINT LeftHandRing2
									{
										OFFSET 3.162567 0.000000 0.000000
										CHANNELS 3 Xrotation Yrotation Zrotation
										JOINT LeftHandRing3
										{
											OFFSET 3.324348 0.000000 0.000000
											CHANNELS 3 Xrotation Yrotation Zrotation
											End Site
											{
												OFFSET -0.861900 3.184998 0.405154
											}
										}
									}
								}
								JOINT LeftHandPinky1
								{
									OFFSET 13.131393 -0.168503 -5.746925
									CHANNELS 3 Xrotation Yrotation Zrotation
									JOINT LeftHandPinky2
									{
										OFFSET 2.849182 0.000000 0.000000
										CHANNELS 3 Xrotation Yrotation Zrotation
										JOINT LeftHandPinky3
										{
											OFFSET 2.805038 0.000000 0.000000
											CHANNELS 3 Xrotation Yrotation Zrotation
											End Site
											{
												OFFSET -0.882500 2.642609 0.325652
											}
										}
									}
								}
							}
							JOINT Left_Sleeve
							{
								OFFSET 6.592125 -0.646545 0.805568
								CHANNELS 3 Xrotation Yrotation Zrotation
								End Site
								{
									OFFSET -0.000179 20.275787 -0.000000
								}
							}
						}
					}
				}
				JOINT RightShoulder
				{
					OFFSET -5.731700 15.108002 -2.763700
					CHANNELS 3 Xrotation Yrotation Zrotation
					JOINT RightArm
					{
						OFFSET -9.825497 2.506317 -1.597400
						CHANNELS 3 Xrotation Yrotation Zrotation
						JOINT RightForeArm
						{
							OFFSET -21.966242 0.000000 0.000000
							CHANNELS 3 Xrotation Yrotation Zrotation
							JOINT RightHand
							{
								OFFSET -33.879032 0.000000 0.000000
								CHANNELS 3 Xrotation Yrotation Zrotation
								JOINT RightHandThumb1
								{
									OFFSET -6.715286 -2.359680 3.363841
									CHANNELS 3 Xrotation Yrotation Zrotation
									JOINT RightHandThumb2
									{
										OFFSET -2.507072 -1.447464 1.447461
										CHANNELS 3 Xrotation Yrotation Zrotation
										JOINT RightHandThumb3
										{
											OFFSET -2.898338 -1.673355 1.673357
											CHANNELS 3 Xrotation Yrotation Zrotation
											End Site
											{
												OFFSET 0.295959 3.727692 -0.131651
											}
										}
									}
								}
								JOINT RightHandIndex1
								{
									OFFSET -14.190811 -0.254547 3.840278
									CHANNELS 3 Xrotation Yrotation Zrotation
									JOINT RightHandIndex2
									{
										OFFSET -3.551727 0.000000 -0.000000
										CHANNELS 3 Xrotation Yrotation Zrotation
										JOINT RightHandIndex3
										{
											OFFSET -2.894196 0.000000 0.000000
											CHANNELS 3 Xrotation Yrotation Zrotation
											End Site
											{
												OFFSET 1.000603 2.690872 0.366626
											}
										}
									}
								}
								JOINT RightHandMiddle1
								{
									OFFSET -13.776489 0.000000 0.000000
									CHANNELS 3 Xrotation Yrotation Zrotation
									JOINT RightHandMiddle2
									{
										OFFSET -3.438232 0.000000 0.000000
										CHANNELS 3 Xrotation Yrotation Zrotation
										JOINT RightHandMiddle3
										{
											OFFSET -3.691551 0.000000 0.000000
											CHANNELS 3 Xrotation Yrotation Zrotation
											End Site
											{
												OFFSET 1.082298 3.499527 0.457670
											}
										}
									}
								}
								JOINT RightHandRing1
								{
									OFFSET -13.966164 -0.268127 -3.067488
									CHANNELS 3 Xrotation Yrotation Zrotation
									JOINT RightHandRing2
									{
										OFFSET -3.162567 0.000000 0.000000
										CHANNELS 3 Xrotation Yrotation Zrotation
										JOINT RightHandRing3
										{
											OFFSET -3.324348 0.000000 0.000000
											CHANNELS 3 Xrotation Yrotation Zrotation
											End Site
											{
												OFFSET 0.861900 3.184998 0.405154
											}
										}
									}
								}
								JOINT RightHandPinky1
								{
									OFFSET -13.131393 -0.168503 -5.746925
									CHANNELS 3 Xrotation Yrotation Zrotation
									JOINT RightHandPinky2
									{
										OFFSET -2.849182 0.000000 0.000000
										CHANNELS 3 Xrotation Yrotation Zrotation
										JOINT RightHandPinky3
										{
											OFFSET -2.805038 0.000000 0.000000
											CHANNELS 3 Xrotation Yrotation Zrotation
											End Site
											{
												OFFSET 0.882500 2.642609 0.325652
											}
										}
									}
								}
							}
							JOINT Right_Sleeve
							{
								OFFSET -6.592125 -0.646545 0.805568
								CHANNELS 3 Xrotation Yrotation Zrotation
								End Site
								{
									OFFSET 0.000179 20.275787 -0.000000
								}
							}
						}
					}
				}
				JOINT Bind_Right_JacketString
				{
					OFFSET -3.534800 11.969597 7.200700
					CHANNELS 3 Xrotation Yrotation Zrotation
					JOINT Bind_Right_JacketString1
					{
						OFFSET -0.319900 -6.102600 2.794100
						CHANNELS 3 Xrotation Yrotation Zrotation
						End Site
						{
							OFFSET 0.000000 6.719452 0.000000
						}
					}
				}
				JOINT Bind_Left_JacketString
				{
					OFFSET 2.904800 11.969597 7.200700
					CHANNELS 3 Xrotation Yrotation Zrotation
					JOINT Bind_Left_JacketString1
					{
						OFFSET 0.364800 -5.904503 3.186800
						CHANNELS 3 Xrotation Yrotation Zrotation
						End Site
						{
							OFFSET 0.000000 6.719513 0.000000
						}
					}
				}
				JOINT HairE
				{
					OFFSET 5.915200 17.612701 -11.592200
					CHANNELS 3 Xrotation Yrotation Zrotation
					JOINT HairE1
					{
						OFFSET 0.289200 -7.171898 -1.284500
						CHANNELS 3 Xrotation Yrotation Zrotation
						End Site
						{
							OFFSET 0.000000 7.291756 0.000000
						}
					}
				}
				JOINT HairF
				{
					OFFSET -0.864800 17.612701 -11.592200
					CHANNELS 3 Xrotation Yrotation Zrotation
					JOINT HairF1
					{
						OFFSET 0.000000 -14.087097 -2.127501
						CHANNELS 3 Xrotation Yrotation Zrotation
						End Site
						{
							OFFSET 0.000000 14.246841 0.000000
						}
					}
				}
				JOINT HairG
				{
					OFFSET -8.087700 17.612701 -11.592200
					CHANNELS 3 Xrotation Yrotation Zrotation
					JOINT HairG1
					{
						OFFSET -0.293600 -6.081398 -0.910100
						CHANNELS 3 Xrotation Yrotation Zrotation
						End Site
						{
							OFFSET 0.000000 6.156120 0.000000
						}
					}
				}
			}
		}
	}
	JOINT Pouch
	{
		OFFSET 0.000000 4.394501 10.847300
		CHANNELS 3 Xrotation Yrotation Zrotation
		End Site
		{
			OFFSET 0.000000 21.880577 0.000000
		}
	}
	JOINT Bag
	{
		OFFSET -13.229000 4.813004 -0.593300
		CHANNELS 3 Xrotation Yrotation Zrotation
		End Site
		{
			OFFSET 0.000000 21.880577 0.000000
		}
	}
	JOINT OccupyGuyFacialAnim_Joint
	{
		OFFSET 1.000000 -70.206398 -1.655000
		CHANNELS 3 Xrotation Yrotation Zrotation
		End Site
		{
			OFFSET 0.000000 21.880577 0.000000
		}
	}
}
MOTION
Frames: 4
Frame Time: 0.016667
2.655448 137.363312 -20.984636 5.211990 -7.206219 0.457247 0.000000 -0.000000 -0.000000 -90.586552 16.087718 21.871119 96.821825 2.820497 5.620087 -6.595262 9.893439 -27.057408 0.000002 0.000001 -0.000001 -0.000000 -0.000001 0.000001 -102.158265 5.949954 -10.676422 106.281336 -7.190521 -2.009395 1.979849 -10.369872 33.832191 0.000000 -0.000001 -0.000000 -0.000001 0.000000 0.000000 8.443569 -0.909481 -0.799875 16.887421 -1.177196 -1.114027 16.887422 -1.177188 -1.114030 -26.807214 6.493739 -1.451445 4.682594 -9.389109 9.652376 0.000000 -0.000001 0.000001 0.000000 -0.000001 0.000001 0.000000 -0.000001 0.000001 0.000000 -0.000001 0.000001 0.000002 -0.000001 0.000000 0.000000 -0.000001 0.000001 0.000002 -0.000001 0.000000 0.000000 -0.000001 0.000001 0.000000 -0.000001 0.000001 -0.612889 -14.977179 27.292785 -67.334751 -8.203789 -15.014252 16.808288 -68.480283 48.053034 33.848870 9.957037 32.839631 -11.360189 -10.015428 28.397698 19.621119 23.755265 -10.341703 -0.000001 -0.000002 0.000001 -7.847194 -3.445001 -67.091234 -4.893162 2.726501 -36.316430 -0.000000 0.000002 0.000000 -10.129402 -3.872123 -67.774246 -1.765732 1.717429 -28.158387 0.000001 0.000001 0.000001 -15.176969 7.293250 -70.201736 7.766219 -0.421177 -31.520066 -0.000001 -0.000001 -0.000000 -16.483434 5.440120 -74.872691 8.338711 -0.185826 -18.883065 -0.000000 0.000001 0.000003 0.000001 0.000005 -0.000004 6.218774 17.756035 -13.894185 -82.947955 43.284497 24.548735 -18.192431 53.742456 -21.031703 34.793605 6.403804 -40.032377 15.333542 1.500897 -10.491467 -10.396767 -3.067652 -10.223939 -0.000000 0.000000 0.000001 0.920262 3.497175 64.452165 1.730978 9.565844 38.865446 0.000001 -0.000001 -0.000002 -6.652421 -3.924336 64.485701 9.406009 5.988765 38.253632 0.000001 -0.000003 -0.000001 -5.546332 1.390198 64.784788 0.232704 -1.792516 39.151734 -0.000000 -0.000001 -0.000002 -17.806365 -16.572313 61.043293 25.326734 3.860175 27.748236 -0.000002 0.000001 -0.000003 0.000000 -0.000001 0.000001 0.000001 -0.000001 -0.000000 0.000001 0.000000 0.000000 0.000001 -0.000001 -0.000000 0.000001 -0.000001 -0.000000 0.000001 -0.000001 -0.000000 0.000001 0.000000 0.000000 0.000001 -0.000001 -0.000000 0.000001 -0.000001 -0.000000 0.000001 -0.000001 -0.000000 0.000001 0.000000 0.000000 0.000000 -0.000000 -0.000000 0.000000 -0.000000 -0.000000 0.000000 -0.000000 -0.000000 
2.813114 137.219589 -21.887587 3.845961 -7.515386 0.387780 -0.000000 -0.000000 -0.000000 -93.193751 14.484395 22.144081 96.503873 1.156036 4.036851 -6.827892 9.965222 -26.969115 0.000001 0.000000 -0.000001 0.000001 0.000001 -0.000000 -102.753871 3.674065 -11.321967 102.666131 -4.494673 -2.533151 0.701121 -10.221035 32.760381 0.000001 0.000001 -0.000001 -0.000000 -0.000000 -0.000000 9.096746 -0.634513 -0.695791 18.191662 -0.858377 -1.119250 18.191661 -0.858374 -1.119251 -27.539473 7.278516 -1.689585 7.619248 -10.946533 10.643141 -0.000000 -0.000001 0.000001 -0.000000 -0.000001 0.000001 -0.000000 -0.000001 0.000001 -0.000000 -0.000001 0.000000 -0.000000 -0.000001 0.000001 -0.000000 -0.000001 0.000000 -0.000000 -0.000001 0.000001 -0.000000 -0.000001 0.000001 -0.000000 -0.000001 0.000001 0.325168 -15.904565 27.503493 -69.510589 -10.660075 -14.371497 10.803147 -66.204224 45.525523 35.794675 7.408750 31.709795 -11.360170 -10.015413 28.397710 19.621108 23.755254 -10.341716 0.000000 -0.000002 -0.000001 -7.847202 -3.444973 -67.091241 -4.893198 2.726513 -36.316430 0.000001 -0.000001 -0.000002 -10.129394 -3.872128 -67.774225 -1.765760 1.717309 -28.158392 -0.000000 0.000001 0.000001 -15.176945 7.293242 -70.201729 7.766216 -0.421187 -31.520059 -0.000001 0.000000 0.000000 -16.483386 5.440057 -74.872704 8.338645 -0.185790 -18.883062 0.000000 -0.000001 -0.000001 -0.000001 -0.000000 0.000000 6.708637 18.898915 -14.296310 -85.364100 45.042424 22.649406 -20.331813 51.306202 -20.083150 36.853061 8.003260 -39.095094 15.333563 1.500887 -10.491464 -10.396766 -3.067652 -10.223939 -0.000000 0.000000 -0.000001 0.920274 3.497203 64.452151 1.731013 9.565896 38.865453 -0.000001 -0.000001 0.000000 -6.652420 -3.924339 64.485687 9.406005 5.988776 38.253639 -0.000001 -0.000001 0.000001 -5.546348 1.390216 64.784768 0.232792 -1.792475 39.151758 -0.000001 0.000000 -0.000001 -17.806356 -16.572312 61.043286 25.326886 3.860265 27.748239 -0.000003 0.000002 -0.000001 0.000004 0.000001 -0.000001 -0.000000 0.000000 0.000000 0.000003 0.000000 0.000000 -0.000000 0.000000 0.000000 -0.000000 0.000000 0.000000 -0.000000 0.000000 0.000000 0.000003 0.000000 0.000000 -0.000000 0.000000 0.000000 -0.000000 0.000000 0.000000 -0.000000 0.000000 0.000000 0.000003 0.000000 0.000000 -0.000000 -0.000000 -0.000000 -0.000000 -0.000000 -0.000000 -0.000000 -0.000000 -0.000000 
2.923657 137.048172 -22.735188 2.543589 -7.696934 0.390077 0.000000 -0.000001 0.000000 -94.669174 13.550085 21.873281 94.274997 -0.620258 2.899576 -6.458574 9.788917 -26.355965 0.000001 -0.000001 0.000000 -0.000000 0.000000 -0.000002 -102.093255 1.140640 -11.987143 97.719339 -1.441149 -2.739569 -1.168501 -9.947101 30.393799 -0.000001 -0.000002 0.000001 0.000000 -0.000000 -0.000001 9.691688 -0.365704 -0.610888 19.380875 -0.593886 -1.137936 19.380860 -0.593884 -1.137936 -27.906160 8.033923 -1.876917 10.220138 -12.179007 11.188148 0.000004 -0.000000 0.000001 0.000004 -0.000000 0.000001 0.000004 -0.000000 0.000001 0.000004 -0.000000 0.000001 0.000002 -0.000001 -0.000000 0.000004 -0.000000 0.000001 0.000002 -0.000001 -0.000000 0.000004 -0.000000 0.000001 0.000004 -0.000000 0.000001 1.416573 -16.917211 27.896849 -71.463921 -13.211096 -13.429065 5.023467 -63.827250 43.312436 37.747420 4.815430 30.663998 -11.360189 -10.015433 28.397691 19.621108 23.755246 -10.341707 -0.000000 -0.000000 0.000000 -7.847206 -3.445000 -67.091234 -4.893214 2.726558 -36.316430 0.000002 0.000001 0.000000 -10.129363 -3.872170 -67.774246 -1.765774 1.717166 -28.158374 -0.000000 0.000001 -0.000001 -15.176928 7.293184 -70.201729 7.766209 -0.421211 -31.520059 -0.000001 0.000003 0.000002 -16.483359 5.439958 -74.872691 8.338577 -0.185694 -18.883077 0.000002 -0.000000 -0.000001 0.000000 0.000001 0.000001 7.401564 20.145762 -15.002647 -85.334799 46.412232 18.300097 -22.943280 49.160215 -18.542932 37.921641 8.917835 -38.636768 15.333560 1.500902 -10.491469 -10.396769 -3.067650 -10.223936 -0.000001 -0.000001 -0.000000 0.920270 3.497221 64.452179 1.731063 9.565938 38.865446 -0.000000 0.000001 -0.000001 -6.652413 -3.924336 64.485681 9.405998 5.988800 38.253632 0.000002 -0.000001 0.000001 -5.546335 1.390206 64.784775 0.232881 -1.792379 39.151751 -0.000000 0.000000 -0.000000 -17.806365 -16.572307 61.043306 25.327045 3.860341 27.748221 -0.000001 0.000001 -0.000001 -0.000001 -0.000002 0.000002 0.000002 0.000000 -0.000000 0.000002 0.000000 -0.000000 0.000002 0.000000 -0.000000 0.000002 0.000000 -0.000000 0.000002 0.000000 -0.000000 0.000002 0.000000 -0.000000 0.000002 0.000000 -0.000000 0.000002 0.000000 -0.000000 0.000002 0.000000 -0.000000 0.000002 0.000000 -0.000000 0.000000 -0.000001 0.000000 0.000000 -0.000001 0.000000 0.000000 -0.000001 0.000000 
2.973509 136.838638 -23.494219 1.364858 -7.779124 0.459713 -0.000000 0.000000 -0.000000 -94.757284 13.300890 21.147763 90.302389 -2.609556 2.152059 -5.896703 9.460405 -24.980737 0.000000 0.000001 -0.000002 -0.000000 0.000001 0.000000 -100.172818 -1.573180 -12.570263 91.496804 1.731601 -2.613595 -3.276105 -9.452992 26.852231 0.000002 0.000002 0.000002 0.000001 0.000000 -0.000000 10.216600 -0.139668 -0.545022 20.431051 -0.404109 -1.150167 20.431037 -0.404105 -1.150169 -27.891902 8.715286 -1.992549 12.324967 -12.999077 11.298006 0.000005 0.000001 -0.000001 0.000005 0.000001 -0.000001 0.000005 0.000001 -0.000001 0.000005 0.000001 -0.000001 0.000003 0.000000 -0.000001 0.000005 0.000001 -0.000001 0.000003 0.000000 -0.000001 0.000005 0.000001 -0.000001 0.000005 0.000001 -0.000001 2.554321 -17.796333 28.564111 -72.885085 -15.245541 -11.944090 -0.383335 -61.659751 41.125085 39.226463 2.594683 29.927539 -11.360181 -10.015450 28.397697 19.621136 23.755261 -10.341712 -0.000000 -0.000003 -0.000002 -7.847214 -3.444992 -67.091220 -4.893235 2.726587 -36.316423 0.000002 0.000002 0.000002 -10.129379 -3.872202 -67.774225 -1.765798 1.717038 -28.158363 0.000002 -0.000000 0.000002 -15.176935 7.293141 -70.201722 7.766211 -0.421198 -31.520063 -0.000001 -0.000001 0.000001 -16.483354 5.439872 -74.872698 8.338507 -0.185629 -18.883086 0.000001 -0.000001 0.000001 0.000000 -0.000001 -0.000001 8.191209 21.269086 -15.938342 -83.291350 47.315873 12.192955 -25.736532 47.219649 -16.682285 38.042115 9.218881 -38.545240 15.333565 1.500890 -10.491456 -10.396767 -3.067651 -10.223939 -0.000000 -0.000001 0.000003 0.920286 3.497222 64.452165 1.731129 9.565986 38.865436 -0.000000 0.000001 0.000000 -6.652398 -3.924358 64.485694 9.406011 5.988785 38.253632 0.000003 0.000001 -0.000002 -5.546344 1.390199 64.784809 0.232957 -1.792311 39.151751 0.000000 0.000001 -0.000001 -17.806353 -16.572325 61.043293 25.327211 3.860436 27.748221 -0.000001 0.000000 -0.000001 -0.000002 0.000001 -0.000001 -0.000003 0.000000 -0.000001 -0.000005 0.000000 -0.000000 -0.000003 0.000000 -0.000000 -0.000003 0.000000 -0.000000 -0.000003 0.000000 -0.000001 -0.000005 0.000000 -0.000001 -0.000003 0.000000 -0.000000 -0.000003 0.000000 -0.000000 -0.000003 0.000000 -0.000001 -0.000005 0.000000 -0.000001 -0.000000 0.000000 -0.000000 -0.000000 0.000000 -0.000000 -0.000000 0.000000 -0.000000 
